{"title":"The Dark Knight Rises 2012 DVDrip English Klam","uid":7844679,"size":2272460936,"categoryP":"video","categoryS":"movies","magnet":"?xt=urn:btih:128d009329e4b16ce82ecc090371297afe70c387&amp;dn=The+Dark+Knight+Rises+2012+DVDrip+English+Klam&amp;tr=udp%3A%2F%2Ftracker.openbittorrent.com%3A80&amp;tr=udp%3A%2F%2Fopen.demonii.com%3A1337&amp;tr=udp%3A%2F%2Ftracker.coppersurfer.tk%3A6969&amp;tr=udp%3A%2F%2Fexodus.desync.com%3A6969","seeders":0,"leechers":0,"uploader":"Klambake","files":-1,"time":1353439080,"description":"With: Christian Bale, Tom Hardy and Anne Hathaway\n\nHet is acht jaar geleden dat Batman (Christian Bale) in de duisternis is verdwenen en van een held in een banneling is veranderd. Hij heeft de schuld van de dood van Harvey Dent op zich genomen en voor het grotere goed alles opgeofferd. Deze leugen heeft een tijd standgehouden, want onder het gewicht van de Dent Act, een antimisdaadwet, zijn de criminele activiteiten in Gotham City verpletterd. Maar alles verandert met de komst van een sluwe inbreekster met een mysterieuze agenda. Veel gevaarlijker echter is de opkomst van Bane (Tom Hardy), een gemaskerde terrorist die meedogenloze plannen heeft voor Gotham en Bruce Wayne dwingt om uit zijn zelfopgelegde ballingschap terug te keren. Maar zelfs als hij zijn cape opnieuw aantrekt, zou Batman wel eens geen partij voor Bane kunnen zijn.\n\nEight years on, a new terrorist leader, Bane, overwhelms Gotham's finest, and the Dark Knight resurfaces to protect a city that has branded him an enemy. \n &lt;a href=&quot;\nhttp://www.imdb.com/title/tt1345836&quot; rel=&quot;nofollow&quot; target=&quot;_NEW&quot;&gt;\nhttp://www.imdb.com/title/tt1345836&lt;/a&gt;\t\n\n------------------------ Dutch Friends ------------------------\n---------------------------------------------------------------\n- Bezoek ook eens mijn vrienden op: &lt;a href=&quot; http://www.Film-Test.nl&quot; rel=&quot;nofollow&quot; target=&quot;_NEW&quot;&gt; http://www.Film-Test.nl&lt;/a&gt; --\n----- voor mijn Nederlandse Sync. ondertitels ---- en meer ----\n------- http://www.Film-Test.nl ---- Over Films en meer -------\n---------------------------------------------------------------\n\nGeneral:\n\nComplete name                    : The Dark Knight RisesThe Dark Knight Rises.avi\nFormat                           : AVI\nFormat/Info                      : Audio Video Interleave\nFile size                        : 2.12 GiB\nDuration                         : 2h 44mn\nOverall bit rate                 : 1 842 Kbps\n\nVideo:\n\nFormat                           : MPEG-4 Visual\nFormat profile                   : Simple@L3\nFormat settings, BVOP            : No\nFormat settings, QPel            : No\nFormat settings, GMC             : No warppoints\nFormat settings, Matrix          : Default (H.263)\nCodec ID                         : XVID\nCodec ID/Hint                    : XviD\nDuration                         : 2h 44mn\nBit rate                         : 1 447 Kbps\nWidth                            : 720 pixels\nHeight                           : 304 pixels\nDisplay aspect ratio             : 2.35:1\nFrame rate                       : 23.976 fps\nColor space                      : YUV\nChroma subsampling               : 4:2:0\nBit depth                        : 8 bits\nScan type                        : Progressive\nCompression mode                 : Lossy\nBits/(Pixel*Frame)               : 0.276\nStream size                      : 1.66 GiB (79%)\nWriting library                  : XviD 1.1.2 (UTC 2006-11-01)\n\nAudio:\n\nFormat                           : AC-3\nFormat/Info                      : Audio Coding 3\nMode extension                   : CM (complete main)\nCodec ID                         : 2000\nDuration                         : 2h 44mn\nBit rate mode                    : Constant\nBit rate                         : 384 Kbps\nChannel(s)                       : 6 channels\nChannel positions                : Front: L C R, Side: L R, LFE\nSampling rate                    : 48.0 KHz\nBit depth                        : 16 bits\nCompression mode                 : Lossy\nStream size                      : 452 MiB (21%)\nAlignment                        : Aligned on interleaves\nInterleave, duration             : 32 ms (0.77 video frame)\nInterleave, preload duration     : 320 ms","torrent":{"xt":"urn:btih:128d009329e4b16ce82ecc090371297afe70c387","amp;dn":"The+Dark+Knight+Rises+2012+DVDrip+English+Klam","amp;tr":["udp%3A%2F%2Ftracker.openbittorrent.com%3A80","udp%3A%2F%2Fopen.demonii.com%3A1337","udp%3A%2F%2Ftracker.coppersurfer.tk%3A6969","udp%3A%2F%2Fexodus.desync.com%3A6969"],"infoHash":"128d009329e4b16ce82ecc090371297afe70c387","infoHashBuffer":{"type":"Buffer","data":[18,141,0,147,41,228,177,108,232,46,204,9,3,113,41,122,254,112,195,135]},"announce":[],"urlList":[]}}